<?xml version="1.0" encoding="UTF-8" standalone="no"?>
<!-- Created with Inkscape (http://www.inkscape.org/) -->

<svg
   xmlns:dc="http://purl.org/dc/elements/1.1/"
   xmlns:cc="http://creativecommons.org/ns#"
   xmlns:rdf="http://www.w3.org/1999/02/22-rdf-syntax-ns#"
   xmlns:svg="http://www.w3.org/2000/svg"
   xmlns="http://www.w3.org/2000/svg"
   version="1.1"
   width="220"
   height="270"
   id="svg2">
  <defs
     id="defs4" />
  <metadata
     id="metadata7">
    <rdf:RDF>
      <cc:Work
         rdf:about="">
        <dc:format>image/svg+xml</dc:format>
        <dc:type
           rdf:resource="http://purl.org/dc/dcmitype/StillImage" />
        <dc:title></dc:title>
      </cc:Work>
    </rdf:RDF>
  </metadata>
  <g
     transform="translate(-345.19429,-399.56217)"
     id="layer1">
    <path
       d="m 392.33418,406.42427 c 10.74527,2.9e-4 19.16243,4.4775 25.2515,13.43164 6.44712,8.59653 10.02889,20.41637 10.74531,35.45955 l 0,56.41291 15.04344,0 25.2515,25.78876 -40.29494,0 0,73.06815 c -7e-5,5.73092 2.14899,10.92448 6.44719,15.5807 4.29805,4.65638 11.2825,6.98453 20.95337,6.98446 12.53609,7e-5 25.78863,-6.98438 39.75767,-20.95337 14.32693,-14.32698 21.84865,-29.01223 22.56516,-44.05579 l -6.44719,0.53726 c -22.92347,1.4e-4 -34.38513,-12.17788 -34.38501,-36.53407 -1.2e-4,-8.2379 2.68621,-15.58053 8.05899,-22.0279 5.37252,-6.44699 14.32694,-9.67058 26.86329,-9.67078 13.25239,2e-4 24.35587,5.73103 33.31048,17.1925 9.31241,11.46184 13.96871,25.43074 13.96891,41.90673 -1.9e-4,24.35617 -10.38733,47.63767 -31.16142,69.84456 -20.41625,22.20704 -44.77227,33.31052 -73.06815,33.31048 -10.38722,4e-5 -21.49071,-4.47717 -33.31048,-13.43165 -11.46172,-9.31254 -18.26708,-18.26696 -20.41609,-26.86329 l 0,-84.88799 -25.78877,0 -24.71422,-25.78876 50.50298,0 0,-51.04025 c -4e-5,-10.38689 -6.26814,-16.4759 -18.8043,-18.26704 -5.73086,2.6e-4 -9.49171,0.8957 -11.28258,2.68633 -3.22361,-5.3724 -6.26811,-11.81958 -9.13352,-19.34157 l 0,-2.68633 c -10e-6,-4.65602 3.58176,-8.59597 10.74531,-11.81985 7.16353,-3.2233 13.61071,-4.8351 19.34157,-4.83539"
       id="path2990"
       style="font-size:537.26580811px;font-style:normal;font-variant:normal;font-weight:normal;font-stretch:normal;line-height:125%;letter-spacing:0px;word-spacing:0px;fill:#000000;fill-opacity:1;stroke:none;font-family:Serif;-inkscape-font-specification:Serif" />
  </g>
</svg>
